/* XPM */
static char * Protoss_xpm[] = {
"16 16 73 1",
" 	c None",
".	c #231A09",
"+	c #52350D",
"@	c #774D16",
"#	c #885519",
"$	c #664E1B",
"%	c #BA9235",
"&	c #754A18",
"*	c #6B5F24",
"=	c #A28B3D",
"-	c #7A541C",
";	c #261E0C",
">	c #533F13",
",	c #675823",
"'	c #906F2C",
")	c #776325",
"!	c #756224",
"~	c #7D5E1C",
"{	c #765B27",
"]	c #AD9B45",
"^	c #776428",
"/	c #95772F",
"(	c #9E8535",
"_	c #9B7827",
":	c #472C0D",
"<	c #335F67",
"[	c #556961",
"}	c #A4924D",
"|	c #B3A254",
"1	c #5F461A",
"2	c #A58B33",
"3	c #43280A",
"4	c #456C9B",
"5	c #3D99C1",
"6	c #7C7D59",
"7	c #D1C772",
"8	c #9D9254",
"9	c #C6B24B",
"0	c #A98A32",
"a	c #40270B",
"b	c #2E688A",
"c	c #2B85A7",
"d	c #6A7558",
"e	c #C9B953",
"f	c #BBAE67",
"g	c #9F9756",
"h	c #6A5A34",
"i	c #9A8F48",
"j	c #8B9863",
"k	c #B59B48",
"l	c #AB8E34",
"m	c #AE9741",
"n	c #857C50",
"o	c #433A38",
"p	c #644C1C",
"q	c #BD9C36",
"r	c #B48B33",
"s	c #8C6123",
"t	c #AA8A32",
"u	c #B99123",
"v	c #704614",
"w	c #765A1F",
"x	c #B18C2E",
"y	c #744B19",
"z	c #967C2C",
"A	c #5C3E13",
"B	c #321F07",
"C	c #7E5A1C",
"D	c #986D23",
"E	c #2E200A",
"F	c #573F14",
"G	c #815619",
"H	c #382309",
"     .          ",
"     +          ",
"     @#         ",
"     $%&        ",
"     *=-  ;>    ",
"     ,' )! ~    ",
"     {]^/( _:   ",
"     <[}|1 23   ",
"     4567890a   ",
"     bcdefgh    ",
"     ijklmno    ",
"    pqrstuv     ",
"    wxy zAB     ",
"    CD EF       ",
"     G          ",
"     H          "};
