/* XPM */
static const char *const gantt_xpm[] = {
/* columns rows colors chars-per-pixel */
"16 16 4 1 ",
"  c None",
". c #3865AF",
"X c #5584D1",
"o c white",
/* pixels */
"................",
".oooooooooooooo.",
".oXXXXXoXXXXXoo.",
".oXXXXXoXXXXXoo.",
".oooooooooooooo.",
".oooXXXXXXXoooo.",
".oooXXXXXXXoooo.",
".oooooooooooooo.",
".oooooXXXXXXXXo.",
".oooooXXXXXXXXo.",
".oooooooooooooo.",
".ooooooooXXXooo.",
".ooooooooXXXooo.",
".oooooooooooooo.",
"................",
"                "
};
