/* XPM */
static char *Protoss_xpm[] = {
/* columns rows colors chars-per-pixel */
"16 16 82 1 ",
"  c None",
". c #937853",
"X c #AD883B",
"o c #B18F36",
"O c #B39238",
"+ c #C39D33",
"@ c #C89D33",
"# c #DBAA27",
"$ c #DEB43B",
"% c #E0B434",
"& c #8F8256",
"* c #B09540",
"= c #B39044",
"- c #BF934A",
"; c #AE9370",
": c #BA9D7D",
"> c #AEA061",
", c #AFA963",
"< c #B8A363",
"1 c #B6AF6A",
"2 c #B7A37F",
"3 c #C89546",
"4 c #C9A847",
"5 c #CBA04F",
"6 c #C8A053",
"7 c #D1A35F",
"8 c #CEB956",
"9 c #D2B558",
"0 c #C5AB77",
"q c #C8B879",
"w c #DBC151",
"e c #E2C244",
"r c #EEC94E",
"t c #E2CA54",
"y c #E3CC55",
"u c #DAC876",
"i c #DDCE76",
"p c #F0D868",
"a c #7AA3A2",
"s c #7CB7C3",
"d c #68BEF9",
"f c #6ED1F7",
"g c #A79B87",
"h c #83B2B9",
"j c #C3BC82",
"k c #D1BDA4",
"l c #9DC3A7",
"z c #D6CA88",
"x c #D5C79B",
"c c #E1C291",
"v c #F5E981",
"b c #D6C9A0",
"n c #D3C0AB",
"m c #DBD4A5",
"M c #D2CABF",
"N c #D4D2B1",
"B c #D9D1BA",
"V c #D7CDC0",
"C c #D5CFC4",
"Z c #D7D3C3",
"A c #D5D2C4",
"S c #D5D3C4",
"D c #D9D2C4",
"F c #DCD6D2",
"G c #E4D2C0",
"H c #E0D9CA",
"J c #E2DDD5",
"K c #E3DED4",
"L c #E2DED7",
"P c #EDE7D7",
"I c #E6E3DB",
"U c #E7E2DC",
"Y c #E5E3DF",
"T c #EBE6DD",
"R c #DCE5E6",
"E c #DCE5F0",
"W c #DFE9F0",
"Q c #E5E4E3",
"! c #E6E5E2",
"~ c #E9E6E3",
"^ c #EBE7E2",
"/ c #E9E7E4",
/* pixels */
"    L           ",
"    VG          ",
"    M7          ",
"    Zwc         ",
"    S*;U  UT    ",
"    SOL!b  0    ",
"    D8x 4H =    ",
"    Rh>u<CPo!   ",
"    EdavzmpX    ",
"    Wfsyij,g    ",
"    Nlqte1&F    ",
"    9r56%#:     ",
"   ^$-^L+.      ",
"   /@n B2       ",
"    3  U        ",
"    k           "
};
