/* XPM */
static char *SC2FusionF32Icon[] = {
/* columns rows colors chars-per-pixel */
"32 32 256 2",
"   c #000101",
".  c #050709",
"X  c #070A0D",
"o  c #090C0E",
"O  c #090D12",
"+  c #070D19",
"@  c #0F181D",
"#  c #0D1316",
"$  c #0D1A2B",
"%  c #0C1A21",
"&  c #121C22",
"*  c #020937",
"=  c #06143C",
"-  c #060A27",
";  c #1A2535",
":  c #1C2228",
">  c #232B3A",
",  c #282F38",
"<  c #352E3E",
"1  c #29343C",
"2  c #081844",
"3  c #08174A",
"4  c #0A1A47",
"5  c #001457",
"6  c #051A50",
"7  c #0A1B53",
"8  c #1A2E4A",
"9  c #1C334E",
"0  c #0C2255",
"q  c #1F3455",
"w  c #182A51",
"e  c #2E3C4B",
"r  c #3B3E5A",
"t  c #343B52",
"y  c #0E2961",
"u  c #163471",
"i  c #1C3C7A",
"p  c #243C63",
"a  c #463843",
"s  c #2C4651",
"d  c #2B466C",
"f  c #324F6E",
"g  c #2F4C74",
"h  c #28487A",
"j  c #2E5177",
"k  c #35527B",
"l  c #3D546B",
"z  c #4A4C54",
"x  c #4D4B5C",
"c  c #6F5752",
"v  c #785C5F",
"b  c #674E47",
"n  c #4A5363",
"m  c #535B6E",
"M  c #475571",
"N  c #6A5A63",
"B  c #57677A",
"V  c #6A6C76",
"C  c #7A7676",
"Z  c #7B666C",
"A  c #A35B37",
"S  c #816F59",
"D  c #9F6550",
"F  c #9D795C",
"G  c #BB6A4E",
"H  c #906F6E",
"J  c #8E776B",
"K  c #987E66",
"L  c #816C72",
"P  c #937878",
"I  c #85717A",
"U  c #C37752",
"Y  c #C77555",
"T  c #C77A4C",
"R  c #978374",
"E  c #AE926C",
"W  c #B1946E",
"Q  c #A78879",
"!  c #A1907F",
"~  c #B29775",
"^  c #A68D67",
"/  c #C9804D",
"(  c #CD8759",
")  c #D78C5E",
"_  c #D48968",
"`  c #173C87",
"'  c #1E4384",
"]  c #334A81",
"[  c #2F5183",
"{  c #335888",
"}  c #244B94",
"|  c #3D5E9D",
" . c #23438B",
".. c #3F6C9C",
"X. c #3F6696",
"o. c #366386",
"O. c #2D5CA1",
"+. c #3666A8",
"@. c #2E7AB5",
"#. c #3D77BD",
"$. c #3371B4",
"%. c #346CB4",
"&. c #425C87",
"*. c #43628E",
"=. c #547F89",
"-. c #4B6A9B",
";. c #506E9F",
":. c #4E769E",
">. c #52749D",
",. c #5E6584",
"<. c #7F7184",
"1. c #6B7F92",
"2. c #4A6BA0",
"3. c #4C7AAE",
"4. c #5473A3",
"5. c #537AA4",
"6. c #557AAE",
"7. c #4A7FBD",
"8. c #3D7BC7",
"9. c #718199",
"0. c #799097",
"q. c #5880AE",
"w. c #4983BA",
"e. c #5C87B8",
"r. c #6581AE",
"t. c #768BA6",
"y. c #759AA9",
"u. c #6C8FBC",
"i. c #6383B4",
"p. c #748FB3",
"a. c #7499BD",
"s. c #77A3B5",
"d. c #2F84C4",
"f. c #328DC4",
"g. c #3785CA",
"h. c #3AA7DC",
"j. c #4483CB",
"k. c #5082C0",
"l. c #5893C3",
"z. c #4A93D7",
"x. c #4596C5",
"c. c #669AC6",
"v. c #7A9FC3",
"b. c #50A5C3",
"n. c #5DB4DD",
"m. c #4CA8D7",
"M. c #6AA6C9",
"N. c #77A6C7",
"B. c #7AB3C7",
"V. c #6AA9D3",
"C. c #75ACD5",
"Z. c #6CB0D8",
"A. c #74B6DA",
"S. c #7CBAE4",
"D. c #78B8E9",
"F. c #6BB3ED",
"G. c #76C3DC",
"H. c #68C0E0",
"J. c #76C9E7",
"K. c #73D0EA",
"L. c #72D1F1",
"P. c #6BC8F1",
"I. c #958182",
"U. c #808B95",
"Y. c #8D838E",
"T. c #B38E84",
"R. c #B49284",
"E. c #A9988D",
"W. c #9399A8",
"Q. c #968FB1",
"!. c #8B9DB5",
"~. c #8595A7",
"^. c #A09DA0",
"/. c #9FB1B7",
"(. c #89B1B9",
"). c #ACAFBC",
"_. c #B7AFBB",
"`. c #A6B1B9",
"'. c #B2B6BE",
"]. c #B5A7A6",
"[. c #C69D89",
"{. c #CBA288",
"}. c #D8AA88",
"|. c #C2A597",
" X c #D3B8A0",
".X c #C3B2B6",
"XX c #F9D39C",
"oX c #C9C1B5",
"OX c #F7DAA5",
"+X c #F1D3B3",
"@X c #FEE2AB",
"#X c #FBE3B4",
"$X c #FBE6B8",
"%X c #819BC4",
"&X c #80A9CB",
"*X c #8EA7C7",
"=X c #92AFC6",
"-X c #83BBCA",
";X c #88BFCD",
":X c #98B8C6",
">X c #83B2D4",
",X c #8BB8DA",
"<X c #98B9D8",
"1X c #A8BBCD",
"2X c #A4B7D7",
"3X c #A8ABC4",
"4X c #87BFEA",
"5X c #8DC2CD",
"6X c #85C5D4",
"7X c #99C6D7",
"8X c #98D4DE",
"9X c #A9C8CC",
"0X c #A9C2D9",
"qX c #B2C5DD",
"wX c #84C4E6",
"eX c #82C8E2",
"rX c #9AC7E3",
"tX c #98D4E6",
"yX c #9BDBF4",
"uX c #84D6F9",
"iX c #AFCBE2",
"pX c #A5CEE9",
"aX c #A4D1E2",
"sX c #AADAE2",
"dX c #B3D5EA",
"fX c #AEDBF1",
"gX c #B8D9F6",
"hX c #8BE1FB",
"jX c #95E8FD",
"kX c #AEE3F9",
"lX c #ADF6FF",
"zX c #BAF3FE",
"xX c #B8E7FF",
"cX c #DADFDF",
"vX c #C9C9D3",
"bX c #FCEBC6",
"nX c #FCEED7",
"mX c #FEF1D4",
"MX c #C9DAE8",
"NX c #D3DBE3",
"BX c #D3E4ED",
"VX c #D8E3E9",
"CX c #D3E5F3",
"ZX c #D9EBF7",
"AX c #C1F2FF",
"SX c #C5F8FF",
"DX c #DDF1FE",
"FX c #DCF9FF",
"GX c #E2E7E9",
"HX c #F3F2ED",
"JX c #E3EDF6",
"KX c #F2EAF1",
"LX c #E8F4F9",
"PX c #F3FCFF",
"IX c #FBFFFF",
"UX c None",
/* pixels */
"UXUXUXUXUXUXUXUXUXUXUXUXUXUXUXUXUXUXUXUXUXUXUXUXUXUXUXUXUXUXUXUX",
"UXUXUXUXUXUXUXS W ^ E ~ E W E W ~ R.T.R.Q F K J R K ! E.R C C UX",
"UXUXUXUXUXUXH +XXXOX@X$X@X@X#XOX$XbXmXmX$XXX#XbX$X#XOX+XnXHX^.UX",
"UXUXUXUXUX<.Y.b D _ _ _ Y Y G G ( ( ) ( / Y ) U A T }.|._.z UXUX",
"UXUXUXt Q.<.x 9.MXJXCXCXBXMXiXBXGXVXNXVXGXNXNXcXvXqXv.p.n   UXUX",
"UXUXM 2Xp.N.rX<XN.a.c.C.S.D.A.>X<XpXkXrXN.,XkXAXSXA...B     UXUX",
"UX0.FXAXzXxXgXiX0X,X&XN.V.S.wXS.V.wXyXZ.C.V.A.uXjXhX5.X   UXUXUX",
"UX~.(.:X7XaXdXiXqX0X7XB.s.s.y.s.-X7X6X6X7XaXaXtXsX5X@   UXUXUXUX",
"UXUXUXO + 5 5 * - .           . X o X X o O O O O o   UXUXUXUXUX",
"UXUXUXUXz 1X1X3XW.Y.V V B : UXUXUXUXUXUXUXUXUXUXUXUXUXUXUXUXUXUX",
"UXUXUXUX/.PXKX'.W.!.1.~.2Xt.UXUXUXUXUXUXUXUXUXUXUXUXUXUXUXUXUXUX",
"UXUXUXUX9X4X2.).m ; 1 M :.y.UXUXUXUXUXUXUXUXUXUXUXUXUXUXUXUXUXUX",
"UXUXUXUX9XD.` { <X2X!.g >.B UXUXUXUXUXUXUXUXUXUXUXUXUXUXUXUXUXUX",
"UXUXUXUX-XF.` 6 +.DXr.p -.m UXUXUXUXUXUXUXUXUXUXUXUXUXUXUXUXUXUX",
"UXUXUXUX;XD.} y | DXu.[ t..XQ |. X}.{.[.[.{.[.|.oX`., UXUXUXUXUX",
"UXUXUXUX5XF.' 0 2.PXv.,.H c v H P I L Z I.].vXVXJXx UXUXUXUXUXUX",
"UXUXUXUXB.z.} 0 4.IX=XN a < > r r n U.`.:XN.yXB.& UXUXUXUXUXUXUX",
"UXUXUXUXC.z.} 7 i.IXZX>XA.5...c.A.fX,X+.f.K.=.    UXUXUXUXUXUXUX",
"UXUXUXUXM.g.u * 4.PXdXn.h.f.f.@.m.n.@.d.H.s     UXUXUXUXUXUXUXUX",
"UXUXUXUXe.$. .2 *.LXN.3.x.L.P.n.J.J.K.b.%     UXUXUXUXUXUXUXUXUX",
"UXUXUXUXe.#.` 2 ;.DXq.] l.o.$ $ ; & @ .   UXUXUXUXUXUXUXUXUXUXUX",
"UXUXUXUX6.%.i 2 -.ZXu.h X.;           UXUXUXUXUXUXUXUXUXUXUXUXUX",
"UXUXUXUX3.#.u = ;.CX5.p k >   UXUXUXUXUXUXUXUXUXUXUXUXUXUXUXUXUX",
"UXUXUXUXw.j.i 2 a.ZX*.9 d ; UXUXUXUXUXUXUXUXUXUXUXUXUXUXUXUXUXUX",
"UXUXUXUXk.j.u 7 %XLX>.q g > UXUXUXUXUXUXUXUXUXUXUXUXUXUXUXUXUXUX",
"UXUXUXUX7.8.y 3 *XBXd 9 k > UXUXUXUXUXUXUXUXUXUXUXUXUXUXUXUXUXUX",
"UXUXUXUXw.j.3 6 0XJXp 8 [ t UXUXUXUXUXUXUXUXUXUXUXUXUXUXUXUXUXUX",
"UXUXUXUXl.O.7 = 1XLX&.w 5.f UXUXUXUXUXUXUXUXUXUXUXUXUXUXUXUXUXUX",
"UXUXUXUX+.' = h tXzXC.d &.l UXUXUXUXUXUXUXUXUXUXUXUXUXUXUXUXUXUX",
"UXUXUXUX+.$.w.G.lXjXjXeX&Xe UXUXUXUXUXUXUXUXUXUXUXUXUXUXUXUXUXUX",
"UXUXUXUXj M.G.6X8XsXsX6X(.1 UXUXUXUXUXUXUXUXUXUXUXUXUXUXUXUXUXUX",
"UXUXUXUXUXUX# o . X # X X . UXUXUXUXUXUXUXUXUXUXUXUXUXUXUXUXUXUX"
};
