/* XPM */
static char *SF16Icon[] = {
/* columns rows colors chars-per-pixel */
"16 16 28 1 ",
"  c None",
". c #CD0066",
"X c #CE0066",
"o c #D00066",
"O c #D10066",
"+ c #D30066",
"@ c #D40066",
"# c #D60066",
"$ c #D70066",
"% c #DA0066",
"& c #DD0066",
"* c #DE0066",
"= c #E10066",
"- c #E20066",
"; c #E50066",
": c #E60066",
"> c #E90066",
", c #EA0066",
"< c #ED0066",
"1 c #EE0066",
"2 c #F10066",
"3 c #F20066",
"4 c #F50066",
"5 c #F80066",
"6 c #FA0066",
"7 c #FB0066",
"8 c #FD0066",
"9 c #FF0066",
/* pixels */
"          888888",
"          888888",
"          866886",
"          466   ",
"          444   ",
"222222222 22222 ",
"<<<<<2<<< 2<<<< ",
">>>>>>>>> >>>>> ",
";;;       ;;;   ",
"--------- ---   ",
"********* ***   ",
"%%%%%%%%% %%%   ",
"      $$$ $$$   ",
"+++++++++ +$+   ",
".++.++.++ +.+   ",
"......... ...   "
};
