/* XPM */
static char *SF32Icon[] = {
/* columns rows colors chars-per-pixel */
"32 32 53 1 ",
"  c None",
". c #CC0066",
"X c #CD0066",
"o c #CE0066",
"O c #CF0066",
"+ c #D00066",
"@ c #D10066",
"# c #D20066",
"$ c #D30066",
"% c #D40066",
"& c #D50066",
"* c #D60066",
"= c #D70066",
"- c #D80066",
"; c #D90066",
": c #DA0066",
"> c #DB0066",
", c #DC0066",
"< c #DD0066",
"1 c #DE0066",
"2 c #DF0066",
"3 c #E00066",
"4 c #E10066",
"5 c #E20066",
"6 c #E30066",
"7 c #E40066",
"8 c #E50066",
"9 c #E60066",
"0 c #E70066",
"q c #E80066",
"w c #E90066",
"e c #EA0066",
"r c #EB0066",
"t c #EC0066",
"y c #ED0066",
"u c #EE0066",
"i c #EF0066",
"p c #F00066",
"a c #F10066",
"s c #F20066",
"d c #F30066",
"f c #F40066",
"g c #F50066",
"h c #F60066",
"j c #F70066",
"k c #F80066",
"l c #F90066",
"z c #FA0066",
"x c #FB0066",
"c c #FC0066",
"v c #FD0066",
"b c #FE0066",
"n c #FF0066",
/* pixels */
"                    cccccccccccc",
"                    cccccccccccc",
"                    cccccccccccc",
"                    ccxxcccccccc",
"                    xxxxxxxxcxxx",
"                    xxxhhxxxxxhx",
"                    hxhxhx      ",
"                    hhhhhh      ",
"                    hhhhah      ",
"                    aaaaha      ",
"aaaaaaaiaaaaaaaaaa  aaaaaaaaaa  ",
"iiiiiiiiiaiiiiiiii  iaiiiaiiia  ",
"iieiieiiiiiiieiiii  iieieiiiii  ",
"eeieeeeeeeieieeeee  eeeeeeeeee  ",
"eeeeee0eee0eeeeeee  ee0eeeeeee  ",
"0e00e00e0e00000000  0e00e0e000  ",
"400040              000004      ",
"404400              404004      ",
"444444444444444444  444444      ",
"442242222424442442  222222      ",
"22222222222;222222  22222;      ",
";2;;;2;;;2;2;2;;;;  2;;2;2      ",
";;;;;;;;;;;;;;;;;;  ;;;;;;      ",
";;;;;;;;;;=;=;;;;;  ;=;;;;      ",
"            ===#==  ====;=      ",
"            =#==#=  #=#=#=      ",
"##=####==#########  ######      ",
"##O###O###########  ######      ",
"#OOO##O#OO#OO#OOO#  OO#OO#      ",
"OOOOOOOOOOOOOOOOOO  OOOOOO      ",
"OOO..OOO.OO.OOOOOO  O.OOOO      ",
"...O.O...O..O....O  O....O      "
};
