/* XPM */
static char * Terran_xpm[] = {
"16 16 117 2",
"  	c None",
". 	c #5F3236",
"+ 	c #801C20",
"@ 	c #842325",
"# 	c #8E2629",
"$ 	c #80272C",
"% 	c #62262A",
"& 	c #675A5E",
"* 	c #8C3B3E",
"= 	c #7C2926",
"- 	c #582A20",
"; 	c #533F31",
"> 	c #534236",
", 	c #633225",
"' 	c #87322E",
") 	c #872A2D",
"! 	c #755154",
"~ 	c #6D3133",
"{ 	c #6E332D",
"] 	c #502C27",
"^ 	c #7D1A1C",
"/ 	c #A23D44",
"( 	c #A74347",
"_ 	c #97464A",
": 	c #593B35",
"< 	c #703E34",
"[ 	c #763537",
"} 	c #600E10",
"| 	c #642A25",
"1 	c #7D2326",
"2 	c #9F2D31",
"3 	c #663F39",
"4 	c #653D38",
"5 	c #9A363C",
"6 	c #8A2428",
"7 	c #633128",
"8 	c #683331",
"9 	c #5A2323",
"0 	c #5E2D27",
"a 	c #7D2A2D",
"b 	c #AF1F26",
"c 	c #6B3731",
"d 	c #63342C",
"e 	c #9D252C",
"f 	c #792424",
"g 	c #5E2D25",
"h 	c #5F2323",
"i 	c #581A1B",
"j 	c #531D18",
"k 	c #633C39",
"l 	c #852D2C",
"m 	c #A6181D",
"n 	c #A2191F",
"o 	c #9B2026",
"p 	c #33271F",
"q 	c #4F1C16",
"r 	c #611416",
"s 	c #5A1D1E",
"t 	c #4D1D18",
"u 	c #541E1A",
"v 	c #302924",
"w 	c #6F1D1C",
"x 	c #8C1F21",
"y 	c #602520",
"z 	c #1E1A15",
"A 	c #5B1B19",
"B 	c #620B0D",
"C 	c #554141",
"D 	c #52302B",
"E 	c #611513",
"F 	c #2F1D17",
"G 	c #251E16",
"H 	c #2E2720",
"I 	c #27221B",
"J 	c #4E1514",
"K 	c #5E251D",
"L 	c #641E20",
"M 	c #612124",
"N 	c #59221F",
"O 	c #5B1E1A",
"P 	c #67181A",
"Q 	c #271C17",
"R 	c #2A241E",
"S 	c #6F2725",
"T 	c #6C1B19",
"U 	c #572218",
"V 	c #673538",
"W 	c #582224",
"X 	c #7D1C1F",
"Y 	c #3D2419",
"Z 	c #63201D",
"` 	c #621011",
" .	c #64100F",
"..	c #722B2A",
"+.	c #4A3126",
"@.	c #67201F",
"#.	c #5B4E51",
"$.	c #530C0E",
"%.	c #691516",
"&.	c #34211E",
"*.	c #611717",
"=.	c #6A1413",
"-.	c #452E23",
";.	c #671414",
">.	c #5C363A",
",.	c #552826",
"'.	c #601617",
").	c #371C12",
"!.	c #3A2115",
"~.	c #6C1616",
"{.	c #562221",
"].	c #4E1B1A",
"^.	c #5D1111",
"/.	c #591312",
"(.	c #450A09",
"_.	c #3C0D0D",
":.	c #450F0E",
"                                ",
"          . + @ # $ %           ",
"      & * = - ; > , ' ) !       ",
"      ~ { ] ^ / ( _ : < [       ",
"      } | 1 2 3 4 5 6 7 8       ",
"      9 0 a b c d e f g h       ",
"      i j k l m n o p q r       ",
"      s t u v w x y z A B       ",
"      C D E F G H I J K L       ",
"      M N O P Q R S T U V       ",
"      W X Y Z `  ...+.@.#.      ",
"        $.%.&.*.=.-.;.>.        ",
"          ,.'.).!.~.{.          ",
"            ].^./.(.            ",
"              _.:.              ",
"                                "};
