/* XPM */
static char *Terran_xpm[] = {
/* columns rows colors chars-per-pixel */
"16 16 137 2 ",
"   c None",
".  c #2D2317",
"X  c #2E2319",
"o  c #2B241B",
"O  c #28241E",
"+  c #29251F",
"@  c #2F241E",
"#  c #3A2019",
"$  c #3C201A",
"%  c #292622",
"&  c #3C2623",
"*  c #4C1814",
"=  c #4D1E17",
"-  c #5A1D16",
";  c #5B1D1B",
":  c #6F1011",
">  c #6C1213",
",  c #611D15",
"<  c #6D1A1A",
"1  c #761112",
"2  c #751415",
"3  c #7E1316",
"4  c #7C1518",
"5  c #761B1D",
"6  c #7A181A",
"7  c #442013",
"8  c #442118",
"9  c #442618",
"0  c #47261A",
"q  c #4A271A",
"w  c #472B1F",
"e  c #68281F",
"r  c #771E21",
"t  c #4A2D21",
"y  c #582722",
"u  c #5C2522",
"i  c #512C21",
"p  c #522F21",
"a  c #5E2E23",
"s  c #5C2B24",
"d  c #5A2E25",
"f  c #493223",
"g  c #403329",
"h  c #41342E",
"j  c #503226",
"k  c #543024",
"l  c #563324",
"z  c #5E3220",
"x  c #5B362B",
"c  c #593B2D",
"v  c #6E2A28",
"b  c #7B2527",
"n  c #7D2524",
"m  c #6E332C",
"M  c #623D2A",
"N  c #613D2C",
"B  c #603D34",
"V  c #574237",
"C  c #5F4133",
"Z  c #57443A",
"A  c #634032",
"S  c #6C4737",
"D  c #6A4E41",
"F  c #7C4E4A",
"G  c #665342",
"H  c #920C0F",
"J  c #860D10",
"K  c #801314",
"L  c #891418",
"P  c #891419",
"I  c #81181C",
"U  c #891C1F",
"Y  c #8F1F1F",
"T  c #92191D",
"R  c #841F21",
"E  c #911F22",
"W  c #A61D21",
"Q  c #BA1A21",
"!  c #BF1A20",
"~  c #BF1A21",
"^  c #832722",
"/  c #812727",
"(  c #8F2225",
")  c #852C24",
"_  c #832729",
"`  c #802F29",
"'  c #8D282C",
"]  c #982E2E",
"[  c #843126",
"{  c #813133",
"}  c #8D3830",
"|  c #80373B",
" . c #8B3939",
".. c #963D36",
"X. c #A52728",
"o. c #B32326",
"O. c #A62A31",
"+. c #A12E30",
"@. c #AA2F30",
"#. c #BD2730",
"$. c #BD2A34",
"%. c #A8373C",
"&. c #C23035",
"*. c #A03C40",
"=. c #B13D45",
"-. c #B23E46",
";. c #BA3C41",
":. c #C63846",
">. c #834A4C",
",. c #92494C",
"<. c #865149",
"1. c #A94448",
"2. c #A8494C",
"3. c #AB484E",
"4. c #B0464A",
"5. c #B34B4F",
"6. c #A15153",
"7. c #AE5D5D",
"8. c #B15155",
"9. c #BF5358",
"0. c #BA5B5F",
"q. c #9C7272",
"w. c #9E7D7D",
"e. c #9F7F7E",
"r. c #A37170",
"t. c #A07574",
"y. c #A97C7D",
"u. c #9C8281",
"i. c #A18082",
"p. c #A08282",
"a. c #A49394",
"s. c #C69093",
"d. c #C69B9E",
"f. c #C7ADAF",
"g. c #CBB3B5",
"h. c #DED3D4",
"j. c #DCD5D6",
/* pixels */
"          j.s.8.9.d.h.          ",
"      g.0.] ) M N [ @.5.f.      ",
"      2.D j v 6.7.<.G S *.      ",
"      E c O.o.2.1.:.-.A  .      ",
"      ' x $.;.V Z 4.#.A _       ",
"      { l -.&...} %.+.f _       ",
"      6 t F X.! Q ! s . 4       ",
"      r 0 y h Y W ^ @ $ 3       ",
"      >.q < o X g % # e 5       ",
"      ,.w I ; + % B U z b       ",
"      ( d a P * = T ` p |       ",
"      y.P 8 u J H m i R a.      ",
"        r.2 & - , l n i.        ",
"          u.1 7 9 K t.          ",
"            w.: > q.            ",
"              i.w.              "
};
