/* XPM */
static char * Z_xpm[] = {
"25 25 227 2",
"  	c None",
". 	c #000000",
"+ 	c #FFFFFF",
"@ 	c #8F282A",
"# 	c #210405",
"$ 	c #812125",
"% 	c #510E12",
"& 	c #491317",
"* 	c #200407",
"= 	c #641A21",
"- 	c #450B13",
"; 	c #330B10",
"> 	c #6F2731",
", 	c #D3929A",
"' 	c #6C1C28",
") 	c #44131A",
"! 	c #5B1521",
"~ 	c #C33A53",
"{ 	c #230C10",
"] 	c #4E2028",
"^ 	c #510C19",
"/ 	c #B22542",
"( 	c #64202E",
"_ 	c #1A0B0E",
": 	c #090002",
"< 	c #6A172A",
"[ 	c #280910",
"} 	c #712034",
"| 	c #DA99A9",
"1 	c #170007",
"2 	c #25050E",
"3 	c #7F2540",
"4 	c #0C0507",
"5 	c #640523",
"6 	c #120509",
"7 	c #57172E",
"8 	c #3D1A27",
"9 	c #170009",
"0 	c #840E3D",
"a 	c #663447",
"b 	c #280212",
"c 	c #3B1E2A",
"d 	c #5B092C",
"e 	c #7F254F",
"f 	c #671E40",
"g 	c #DCA4BE",
"h 	c #6C1940",
"i 	c #3A1728",
"j 	c #040002",
"k 	c #71274C",
"l 	c #A43A71",
"m 	c #7F0C4C",
"n 	c #811C54",
"o 	c #1C0512",
"p 	c #4C1736",
"q 	c #3D0527",
"r 	c #64234A",
"s 	c #4E1A3A",
"t 	c #A94584",
"u 	c #752A5B",
"v 	c #AF2C85",
"w 	c #0B0509",
"x 	c #3F0B2F",
"y 	c #983378",
"z 	c #7F1963",
"A 	c #561944",
"B 	c #B04F95",
"C 	c #251320",
"D 	c #170713",
"E 	c #560E47",
"F 	c #511544",
"G 	c #A63691",
"H 	c #CA59B4",
"I 	c #401338",
"J 	c #C963B9",
"K 	c #DC9FD2",
"L 	c #711364",
"M 	c #64235C",
"N 	c #A6429A",
"O 	c #E0A1D8",
"P 	c #C16CB9",
"Q 	c #672863",
"R 	c #B74EAF",
"S 	c #280027",
"T 	c #662364",
"U 	c #C466C1",
"V 	c #B666B4",
"W 	c #050005",
"X 	c #490E49",
"Y 	c #B642B6",
"Z 	c #0C050C",
"` 	c #B563B4",
" .	c #BC6ABB",
"..	c #1E151E",
"+.	c #DCA3DC",
"@.	c #D9A5D9",
"#.	c #E6B4E6",
"$.	c #EDBFED",
"%.	c #903892",
"&.	c #AE4AB0",
"*.	c #C35BC4",
"=.	c #B85FBA",
"-.	c #B45CB5",
";.	c #D186D3",
">.	c #AD59B0",
",.	c #AC5BAF",
"'.	c #C771CB",
").	c #C781CB",
"!.	c #D089D3",
"~.	c #D495D7",
"{.	c #DEA0E1",
"].	c #CF9BD2",
"^.	c #F0C1F2",
"/.	c #A64EAC",
"(.	c #824086",
"_.	c #AC5BB1",
":.	c #BA67C0",
"<.	c #D696DA",
"[.	c #DEA8E2",
"}.	c #DCB2DF",
"|.	c #2F0234",
"1.	c #6C1C75",
"2.	c #792882",
"3.	c #A557AD",
"4.	c #B766BF",
"5.	c #915796",
"6.	c #C88ACE",
"7.	c #E4B8E8",
"8.	c #962FA4",
"9.	c #6C2774",
"0.	c #9B4CA5",
"a.	c #230228",
"b.	c #751386",
"c.	c #903B9E",
"d.	c #7E3389",
"e.	c #AE57BB",
"f.	c #AA57B7",
"g.	c #B067BC",
"h.	c #33103A",
"i.	c #662174",
"j.	c #5B1E66",
"k.	c #B759C9",
"l.	c #A451B5",
"m.	c #C371D3",
"n.	c #3A0B45",
"o.	c #471353",
"p.	c #9628AD",
"q.	c #79238C",
"r.	c #7B388A",
"s.	c #3B2340",
"t.	c #85219E",
"u.	c #662377",
"v.	c #69257C",
"w.	c #280E2F",
"x.	c #27152C",
"y.	c #270431",
"z.	c #25072E",
"A.	c #15041A",
"B.	c #250C2C",
"C.	c #9533B4",
"D.	c #882FA1",
"E.	c #84389B",
"F.	c #1E0E23",
"G.	c #9A57AD",
"H.	c #884F98",
"I.	c #7C159E",
"J.	c #49125B",
"K.	c #9F38C2",
"L.	c #C457E7",
"M.	c #B753D9",
"N.	c #381A42",
"O.	c #782C95",
"P.	c #200C28",
"Q.	c #913BB2",
"R.	c #280C34",
"S.	c #9536BD",
"T.	c #1C0C23",
"U.	c #7207A3",
"V.	c #8212B9",
"W.	c #7F19B0",
"X.	c #8C31BA",
"Y.	c #13041C",
"Z.	c #751EAA",
"`.	c #12021C",
" +	c #3D1756",
".+	c #1A0727",
"++	c #090010",
"@+	c #050009",
"#+	c #0C0512",
"$+	c #0C0415",
"%+	c #000007",
"&+	c #000002",
"*+	c #000905",
"=+	c #000400",
"-+	c #000200",
";+	c #050900",
">+	c #1A1A05",
",+	c #120E00",
"'+	c #040200",
")+	c #150900",
"!+	c #2E251E",
"~+	c #070200",
"{+	c #2A1005",
"]+	c #613321",
"^+	c #090200",
"/+	c #210904",
"(+	c #120C0B",
"_+	c #341510",
":+	c #0C0504",
"<+	c #200502",
"[+	c #1E0402",
"}+	c #3F0704",
"|+	c #7F1C17",
"1+	c #6A1A15",
"2+	c #6C201C",
"3+	c #AA635F",
"4+	c #310705",
"5+	c #120000",
"6+	c #070000",
"7+	c #050000",
"8+	c #100202",
"9+	c #310B0B",
"0+	c #691C1C",
"a+	c #230B0B",
"b+	c #050202",
"c+	c #090505",
"d+	c #120C0C",
"                                                  ",
"                                                  ",
"                        ) ! :+                    ",
"                > 3 k o . 7 h '+c                 ",
"              . ~+x G Y `.S H F 8+=               ",
"          . . } A . t.q.. %.*.y.: n D             ",
"        9+0+2+y &.. ].~.5.$.(.Z Q J I /+          ",
"        ^+. @+%+l.}.).3./.-.` 7.^.f.a.a.          ",
"        d+t V $+<. .o.Y.++h.2.'._.. s a.          ",
"        b M u.{.:.|.-+{ a+. .+1.@.6.K p <+        ",
"      b+b w.F.!.9.. E m 0 - &+i.+.,.R.9 }+        ",
"      b+r R e.;.z.#+p.L d 5 . r.>.c.8 @ [+        ",
"      j f W n.=.T.A.M. +. 1 ..4.k.#.| 1+.         ",
"        2 N.d.[.B.w S.X.P.x.g.C.8.g 3+6+          ",
"        6 B j.0.H.>+J.W.Z.Q.K.U.U , _+.           ",
"        [ < . E.m.C ,+X b.I.V.L.O ]+.             ",
"          4+. q O.G.s.;+i u N P a .               ",
"              q . v.D.T !+=+)+{+.                 ",
"        7+# *     . v z l ;                       ",
"          5+% * * ~ / ' ( ( (+                    ",
"            c+& |+$ ] 4 (+                        ",
"                . *+.                             ",
"                                                  ",
"                                                  ",
"                                                  "};
