/* XPM */
static char *Zerg_xpm[] = {
/* columns rows colors chars-per-pixel */
"16 16 166 2 ",
"   c None",
".  c #51132D",
"X  c #4E143E",
"o  c #501E3C",
"O  c #6E1726",
"+  c #632F36",
"@  c #61333B",
"#  c #3C0A55",
"$  c #541340",
"%  c #5C3241",
"&  c #5A2E5F",
"*  c #5D2C5D",
"=  c #583A5F",
"-  c #6B2857",
";  c #74245D",
":  c #69385E",
">  c #5A1E66",
",  c #4E1970",
"<  c #501171",
"1  c #5A1E79",
"2  c #621F6F",
"3  c #5B2363",
"4  c #54266C",
"5  c #672F65",
"6  c #642D66",
"7  c #7B2F63",
"8  c #643869",
"9  c #60287F",
"0  c #6C2F78",
"q  c #693571",
"w  c #6B3578",
"e  c #754F4E",
"r  c #6A4950",
"t  c #724555",
"y  c #75405E",
"u  c #674B6C",
"i  c #6B4B6F",
"p  c #6D506F",
"a  c #784170",
"s  c #77407C",
"d  c #79517D",
"f  c #8A3E4C",
"g  c #80454E",
"h  c #855255",
"j  c #88605C",
"k  c #884F71",
"l  c #80427F",
"z  c #8E5777",
"x  c #975D74",
"c  c #876467",
"v  c #916679",
"b  c #8E7479",
"n  c #9F777A",
"m  c #6D3082",
"M  c #713686",
"N  c #7A359E",
"B  c #7F4083",
"V  c #7A4480",
"C  c #7F4782",
"Z  c #7B4B82",
"A  c #784F85",
"S  c #7F5386",
"D  c #775E83",
"F  c #803A85",
"G  c #824681",
"H  c #8B4983",
"J  c #92598A",
"K  c #8C4B93",
"L  c #8D4F95",
"P  c #955A94",
"I  c #965F9B",
"U  c #995899",
"Y  c #9D5C9D",
"T  c #83678E",
"R  c #88648D",
"E  c #857580",
"W  c #87778D",
"Q  c #89738A",
"!  c #8A7A8D",
"~  c #947A83",
"^  c #8D6390",
"/  c #8F6497",
"(  c #8E6798",
")  c #98639D",
"_  c #8D7993",
"`  c #A77A94",
"'  c #A35BA5",
"]  c #9868B6",
"[  c #A77EAE",
"{  c #AB7AA8",
"}  c #B17EB4",
"|  c #C07CC5",
" . c #998286",
".. c #9B888C",
"X. c #A28482",
"o. c #A8928E",
"O. c #A78F94",
"+. c #A88896",
"@. c #A39497",
"#. c #AE9798",
"$. c #AD909C",
"%. c #9F87A5",
"&. c #A585AC",
"*. c #AC82AF",
"=. c #AD9FA3",
"-. c #AC9AA5",
";. c #AF9AA6",
":. c #B09FA7",
">. c #AA93B4",
",. c #B090B7",
"<. c #ADA5AD",
"1. c #B7A7A7",
"2. c #B3A6AA",
"3. c #B9A7AD",
"4. c #AFA0B1",
"5. c #B9A0B3",
"6. c #C0ACB0",
"7. c #C0B1B6",
"8. c #C1B6B6",
"9. c #C0B6B8",
"0. c #C6BDBB",
"q. c #C4BABD",
"w. c #BD8FC2",
"e. c #BEA3C8",
"r. c #C4A5CA",
"t. c #C1B7C4",
"y. c #C4B9C2",
"u. c #C2BAC4",
"i. c #CABFC9",
"p. c #CFBFD0",
"a. c #D0BAD2",
"s. c #C6C3C3",
"d. c #C8C0C3",
"f. c #CAC1C4",
"g. c #CAC2C5",
"h. c #C8C1C6",
"j. c #CDC2CB",
"k. c #CAC4CA",
"l. c #CFC7C9",
"z. c #CBC0CC",
"x. c #CFCCCA",
"c. c #CFCDCD",
"v. c #D1C8C9",
"b. c #D0CACB",
"n. c #D2CDCC",
"m. c #D3CECF",
"M. c #CFC9D0",
"N. c #CFCAD0",
"B. c #D8C9DD",
"V. c #D5D0D1",
"C. c #D5D1D2",
"Z. c #D7D1D2",
"A. c #D6D1D3",
"S. c #D5D3D3",
"D. c #D6D4D6",
"F. c #D9D2D3",
"G. c #DBDADC",
"H. c #DDDBDC",
"J. c #DFDCDD",
"K. c #E0DCDE",
"L. c #E1DFE3",
"P. c #E2DFE2",
"I. c #E3E0E1",
"U. c #E7E3E6",
"Y. c #E6E5E5",
"T. c #E6E4E7",
/* pixels */
"                ..6.            ",
"        @.% z 5.  o ;.C.v.      ",
"        K.H.& L L.H 5 G.t       ",
"    #.+ 7 z.r.} a.' N.i.- h.    ",
"  Y.J.k.T w.) s 5 G I | V ;.l.  ",
"  I.k *.,.l i t.u.p 3 B L.` q.  ",
"  ~ 4.R U u U.+.O.  = P K a 8.  ",
"  d.{ [ q N.^ $ . 3.%.C d C.j   ",
"  $.Q Z 8   9 e.:.h.&.0 Y g o.  ",
"  2.p./ S   4 ] Y.B.M > x e     ",
"    y _ w <.! # , 1 < F h n.    ",
"    b >.m ( D.E * 2 N J 0.      ",
"    n.8 W D A y.s.=.r h.        ",
"    v.7.C.j.; X v F.n.          ",
"    F.c n f O @  .  n.          ",
"        1.X.9.  C.              "
};
