/* XPM */
static char * Zerg_xpm[] = {
"16 16 151 2",
"  	c None",
". 	c #440E0E",
"+ 	c #5A171C",
"@ 	c #A24550",
"# 	c #811A41",
"$ 	c #350C0C",
"% 	c #5D1A2A",
"& 	c #330614",
"* 	c #290312",
"= 	c #35071A",
"- 	c #611E50",
"; 	c #982A8B",
"> 	c #490D5A",
", 	c #691754",
"' 	c #75215A",
") 	c #2D0204",
"! 	c #5C181B",
"~ 	c #28170D",
"{ 	c #732624",
"] 	c #791B32",
"^ 	c #551841",
"/ 	c #610B78",
"( 	c #9D2FAB",
"_ 	c #6A3443",
": 	c #AE4DAB",
"< 	c #5A1660",
"[ 	c #340724",
"} 	c #6B1845",
"| 	c #370C0D",
"1 	c #4B1315",
"2 	c #4A1044",
"3 	c #833893",
"4 	c #B36CBA",
"5 	c #BC80C0",
"6 	c #AC5EAD",
"7 	c #BC6DBE",
"8 	c #914D91",
"9 	c #B360A9",
"0 	c #873886",
"a 	c #40050C",
"b 	c #510E20",
"c 	c #7E326D",
"d 	c #4C0463",
"e 	c #B674BD",
"f 	c #8E4096",
"g 	c #5F1D6E",
"h 	c #6F197C",
"i 	c #712575",
"j 	c #A346AC",
"k 	c #A85AAE",
"l 	c #3B0754",
"m 	c #621234",
"n 	c #350E18",
"o 	c #681C46",
"p 	c #581E66",
"q 	c #AF61B7",
"r 	c #832C8A",
"s 	c #6C216E",
"t 	c #7C1A37",
"u 	c #50111E",
"v 	c #631F70",
"w 	c #B070B3",
"x 	c #B25EB8",
"y 	c #893F77",
"z 	c #310906",
"A 	c #310A0F",
"B 	c #6F236D",
"C 	c #873299",
"D 	c #984C9E",
"E 	c #5D1569",
"F 	c #7A1C74",
"G 	c #540635",
"H 	c #530621",
"I 	c #56081A",
"J 	c #66237B",
"K 	c #B360B4",
"L 	c #5E156A",
"M 	c #380A33",
"N 	c #500B07",
"O 	c #6A204D",
"P 	c #521465",
"Q 	c #A442A8",
"R 	c #2B043C",
"S 	c #71219C",
"T 	c #801C93",
"U 	c #570520",
"V 	c #4A0217",
"W 	c #953DA2",
"X 	c #9934A1",
"Y 	c #B45BB4",
"Z 	c #91303C",
"` 	c #670A04",
" .	c #2D0911",
"..	c #441230",
"+.	c #5D1B68",
"@.	c #92519D",
"#.	c #23042F",
"$.	c #4D1477",
"%.	c #8726AC",
"&.	c #3C0841",
"*.	c #A058A9",
"=.	c #8735A4",
"-.	c #A127AF",
";.	c #CF7EA8",
">.	c #701D19",
",.	c #8C335F",
"'.	c #601D63",
").	c #6E2C79",
"!.	c #713687",
"~.	c #450E61",
"{.	c #45096C",
"].	c #571680",
"^.	c #722598",
"/.	c #700EB6",
"(.	c #BB43C0",
"_.	c #A7515D",
":.	c #2D0402",
"<.	c #4B0E19",
"[.	c #420D5C",
"}.	c #7F2C98",
"|.	c #812B96",
"1.	c #7E4F88",
"2.	c #3D0C40",
"3.	c #5C1063",
"4.	c #7F1B9A",
"5.	c #B638CA",
"6.	c #B55C96",
"7.	c #56190E",
"8.	c #27090A",
"9.	c #6A1751",
"0.	c #3A0A35",
"a.	c #290942",
"b.	c #612275",
"c.	c #661864",
"d.	c #4E1428",
"e.	c #75243D",
"f.	c #440D1A",
"g.	c #2A0407",
"h.	c #3C0815",
"i.	c #A1276C",
"j.	c #580D3A",
"k.	c #7C1F45",
"l.	c #40090F",
"m.	c #4C070F",
"n.	c #5F0D14",
"o.	c #90131C",
"p.	c #931521",
"q.	c #62131E",
"r.	c #5A161F",
"s.	c #3C0604",
"t.	c #350406",
"                .               ",
"        + @ #   $ % &           ",
"        * = - ; > , ' ) !       ",
"    ~ { ] ^ / ( _ : < [ }       ",
"    | 1 2 3 4 5 6 7 8 9 0 a     ",
"    b c d e f g h i j k l m     ",
"  n o p q r s t u   v w x y z   ",
"  A B C D E F G H I J K L M N   ",
"    O P Q R S T U V W X Y Z `   ",
"   ...+.@.#.$.%.&.*.=.-.;.>.    ",
"    ,.'.).!.~.{.].^./.(._.:.    ",
"    <.[.}.|.1.2.3.4.5.6.7.      ",
"    8.9.0.a.b.c.  d.e.f.        ",
"      g.h.  i.j.k.l.            ",
"      m.n.o.p.q.r.              ",
"          s.t.                  "};
